<?xml version="1.0" encoding="UTF-8"?><svg id="uuid-2cbfa6bc-55b4-4c4e-a1fd-571731bdd3f1" xmlns="http://www.w3.org/2000/svg" viewBox="0 0 40.44805 25"><rect x="14.75524" y="2.6725" width="10.9375" height="19.655" style="fill:#ff5f00; stroke-width:0px;"/><path d="M15.44976,12.5c0-3.98743,1.86698-7.53872,4.77427-9.8275-2.12622-1.67382-4.80899-2.6725-7.72493-2.6725C5.59604,0,0,5.59642,0,12.5s5.59604,12.5,12.4991,12.5c2.91594,0,5.59872-.99868,7.72493-2.6725-2.90729-2.28889-4.77427-5.84007-4.77427-9.8275Z" style="fill:#eb001b; stroke-width:0px;"/><path d="M40.44805,12.5c0,6.90347-5.59604,12.5-12.4991,12.5-2.91594,0-5.59872-.99868-7.72493-2.6725,2.90736-2.28889,4.77424-5.84007,4.77424-9.8275s-1.86687-7.53872-4.77424-9.8275c2.12622-1.67382,4.80899-2.6725,7.72493-2.6725,6.90306,0,12.4991,5.59642,12.4991,12.5Z" style="fill:#f79e1b; stroke-width:0px;"/></svg>