<svg xmlns="http://www.w3.org/2000/svg" fill="none" viewBox="0 0 74 74"><g clip-path="url(#a)"><path fill="url(#b)" d="M58.476 0H15C6.71573 0 0 6.71573 0 15V58.476C0 66.7603 6.71573 73.476 15 73.476H58.476C66.7603 73.476 73.476 66.7603 73.476 58.476V15C73.476 6.71573 66.7603 0 58.476 0Z"/><path fill="#fff" d="M51.089 18.369H22.387C21.3407 18.3703 20.3376 18.7866 19.5979 19.5266C18.8581 20.2665 18.4421 21.2697 18.441 22.316V46.784C18.4423 47.8301 18.8585 48.8331 19.5982 49.5728C20.3379 50.3125 21.3409 50.7287 22.387 50.73H22.746V54.03C22.746 54.3155 22.8594 54.5893 23.0613 54.7912C23.2632 54.9931 23.537 55.1065 23.8225 55.1065C24.108 55.1065 24.3818 54.9931 24.5837 54.7912C24.7856 54.5893 24.899 54.3155 24.899 54.03V35.662H33.51V37.815H30.277C29.9915 37.815 29.7177 37.9284 29.5158 38.1303C29.3139 38.3322 29.2005 38.606 29.2005 38.8915C29.2005 39.177 29.3139 39.4508 29.5158 39.6527C29.7177 39.8546 29.9915 39.968 30.277 39.968H33.506V42.121H28.127C27.8415 42.121 27.5677 42.2344 27.3658 42.4363C27.1639 42.6382 27.0505 42.912 27.0505 43.1975C27.0505 43.483 27.1639 43.7568 27.3658 43.9587C27.5677 44.1606 27.8415 44.274 28.127 44.274H33.509V46.427H30.277C29.9915 46.427 29.7177 46.5404 29.5158 46.7423C29.3139 46.9442 29.2005 47.218 29.2005 47.5035C29.2005 47.789 29.3139 48.0628 29.5158 48.2647C29.7177 48.4666 29.9915 48.58 30.277 48.58H33.506V50.73H28.127C27.8415 50.73 27.5677 50.8434 27.3658 51.0453C27.1639 51.2472 27.0505 51.521 27.0505 51.8065C27.0505 52.092 27.1639 52.3658 27.3658 52.5677C27.5677 52.7696 27.8415 52.883 28.127 52.883H33.509V54.031C33.509 54.3165 33.6224 54.5903 33.8243 54.7922C34.0262 54.9941 34.3 55.1075 34.5855 55.1075C34.871 55.1075 35.1448 54.9941 35.3467 54.7922C35.5486 54.5903 35.662 54.3165 35.662 54.031V50.731H39.967V54.031C39.967 54.3165 40.0804 54.5903 40.2823 54.7922C40.4842 54.9941 40.758 55.1075 41.0435 55.1075C41.329 55.1075 41.6028 54.9941 41.8047 54.7922C42.0066 54.5903 42.12 54.3165 42.12 54.031V42.119H44.277V54.031C44.277 54.3165 44.3904 54.5903 44.5923 54.7922C44.7942 54.9941 45.068 55.1075 45.3535 55.1075C45.639 55.1075 45.9128 54.9941 46.1147 54.7922C46.3166 54.5903 46.43 54.3165 46.43 54.031V42.119H48.577V54.031C48.577 54.3165 48.6904 54.5903 48.8923 54.7922C49.0942 54.9941 49.368 55.1075 49.6535 55.1075C49.939 55.1075 50.2128 54.9941 50.4147 54.7922C50.6166 54.5903 50.73 54.3165 50.73 54.031V50.731H51.089C52.1351 50.7297 53.138 50.3135 53.8778 49.5738C54.6175 48.8341 55.0337 47.8311 55.035 46.785V22.316C55.0339 21.2697 54.6179 20.2665 53.8781 19.5266C53.1384 18.7866 52.1353 18.3703 51.089 18.369V18.369ZM22.389 20.522H51.089C51.5643 20.5236 52.0197 20.7131 52.3558 21.0492C52.6919 21.3853 52.8814 21.8407 52.883 22.316V27.052H20.593V22.316C20.5946 21.8407 20.7841 21.3853 21.1202 21.0492C21.4563 20.7131 21.9117 20.5236 22.387 20.522H22.389ZM42.421 39.967L45.348 36.308L48.277 39.967H42.421ZM51.088 48.578H50.729V39.967C50.7289 39.7227 50.6457 39.4857 50.493 39.295L46.188 33.913C46.0871 33.7871 45.9592 33.6854 45.8137 33.6155C45.6682 33.5457 45.5089 33.5094 45.3475 33.5094C45.1861 33.5094 45.0268 33.5457 44.8813 33.6155C44.7358 33.6854 44.6079 33.7871 44.507 33.913L40.202 39.295C40.0493 39.4857 39.9661 39.7227 39.966 39.967V48.578H35.662V34.585C35.662 34.2996 35.5486 34.0259 35.3468 33.8242C35.1451 33.6224 34.8714 33.509 34.586 33.509H23.822C23.5366 33.509 23.2629 33.6224 23.0611 33.8242C22.8594 34.0259 22.746 34.2996 22.746 34.585V48.577H22.387C21.9117 48.5754 21.4563 48.3859 21.1202 48.0498C20.7841 47.7137 20.5946 47.2583 20.593 46.783V29.2H52.883V46.78C52.8822 47.2558 52.693 47.712 52.3569 48.0487C52.0207 48.3855 51.5648 48.5754 51.089 48.577L51.088 48.578Z"/><path fill="#fff" d="M45.349 24.9C45.5619 24.9008 45.7702 24.8384 45.9477 24.7208 46.1251 24.6031 46.2636 24.4354 46.3457 24.239 46.4279 24.0426 46.4499 23.8262 46.4089 23.6173 46.368 23.4084 46.2661 23.2163 46.116 23.0653 45.9658 22.9143 45.7743 22.8113 45.5656 22.7692 45.3569 22.7272 45.1404 22.748 44.9435 22.829 44.7467 22.91 44.5782 23.0476 44.4596 23.2243 44.3409 23.4011 44.2774 23.6091 44.277 23.822 44.2765 24.107 44.389 24.3806 44.59 24.5827 44.791 24.7848 45.064 24.899 45.349 24.9V24.9zM49.654 24.9C49.8667 24.8998 50.0745 24.8366 50.2513 24.7183 50.4281 24.6001 50.5658 24.4321 50.6472 24.2355 50.7285 24.039 50.7498 23.8228 50.7083 23.6142 50.6669 23.4056 50.5645 23.214 50.4142 23.0635 50.2639 22.913 50.0723 22.8105 49.8638 22.7688 49.6552 22.7272 49.439 22.7483 49.2424 22.8294 49.0458 22.9106 48.8777 23.0482 48.7592 23.2249 48.6408 23.4015 48.5774 23.6093 48.577 23.822 48.5767 23.9636 48.6044 24.1038 48.6584 24.2346 48.7124 24.3655 48.7917 24.4844 48.8918 24.5845 48.9918 24.6846 49.1107 24.7641 49.2415 24.8182 49.3723 24.8723 49.5124 24.9001 49.654 24.9zM41.043 24.9C41.2558 24.9 41.4638 24.8369 41.6408 24.7187 41.8177 24.6004 41.9557 24.4324 42.0371 24.2358 42.1185 24.0392 42.1398 23.8228 42.0983 23.6141 42.0568 23.4054 41.9543 23.2136 41.8038 23.0632 41.6534 22.9127 41.4616 22.8102 41.2529 22.7687 41.0442 22.7272 40.8278 22.7485 40.6312 22.8299 40.4346 22.9113 40.2666 23.0493 40.1483 23.2262 40.0301 23.4032 39.967 23.6112 39.967 23.824 39.967 24.1094 40.0804 24.3831 40.2821 24.5848 40.4839 24.7866 40.7576 24.9 41.043 24.9V24.9z"/></g><defs><linearGradient id="b" x1="-5.29" x2="73.476" y1="-2.351" y2="73.476" gradientUnits="userSpaceOnUse"><stop stop-color="#3CD89D"/><stop offset="1" stop-color="#82C444"/></linearGradient><clipPath id="a"><rect width="73.476" height="73.476" fill="#fff"/></clipPath></defs></svg>