<svg width="1609" height="1081" viewBox="0 0 1609 1081" fill="none" xmlns="http://www.w3.org/2000/svg">
<g clip-path="url(#clip0_14_2)">
<rect width="1609" height="1081" fill="#B2CEFA"/>
<path d="M684.629 707.727C414.197 676.375 226.144 771.019 136 790.864V874H1609V628.113C1528.89 593.168 1305.19 631.525 1239.12 652.773C939.393 749.154 806.334 728.511 684.629 707.727Z" fill="#6692DF"/>
<path d="M1009.72 817.521C1305.12 767.84 1510.53 917.814 1609 949.261V1081H0V691.364C87.5038 635.989 331.86 696.77 404.036 730.44C731.431 883.168 876.775 850.456 1009.72 817.521Z" fill="#3B69F5"/>
<path d="M598.655 844.381C303.072 799.764 97.5278 934.45 -1 962.69V1081H1609V731.085C1521.44 681.354 1276.93 735.939 1204.71 766.176C877.114 903.335 731.68 873.958 598.655 844.381Z" fill="#0666C7"/>
<path d="M599.283 923.68C303.883 894.016 98.4667 983.564 0 1002.34V1081H1609V848.354C1521.5 815.29 1277.14 851.581 1204.96 871.685C877.569 962.877 732.225 943.345 599.283 923.68Z" fill="#063F8E"/>
</g>
<defs>
<clipPath id="clip0_14_2">
<rect width="1609" height="1081" fill="white"/>
</clipPath>
</defs>
</svg>
